<svg version="1.2" xmlns="http://www.w3.org/2000/svg" viewBox="0 0 512 512" width="512" height="512">
	<path id="Color Fill 1" fill="#fff" d="m49.5 32.43c2.78 0.23 6.11 1.25 7.5 2.3 1.38 1.04 3.52 3.89 7.02 10.77l-0.02 402.5 405.85 0.5 2.83 2.09c1.55 1.15 3.85 3.63 5.1 5.5 1.53 2.29 2.28 4.89 2.28 7.91 0 3.04-0.76 5.64-2.33 8-1.28 1.93-3.88 4.53-9.23 8.06h-425l-3.5-2.33c-1.93-1.28-4.53-3.88-8.06-9.23l0.03-212.25c0.03-180.28 0.24-212.66 1.43-215 0.78-1.51 2.47-3.74 3.75-4.94 1.29-1.2 3.47-2.66 4.85-3.24 1.37-0.58 4.75-0.87 7.5-0.64zm414.25 103.63c1.79-0.03 4.9 0.73 6.91 1.69 2.02 0.96 4.52 2.88 5.56 4.25 1.04 1.38 2.39 4.07 3 6 0.82 2.62 0.79 4.63-0.14 8-1.13 4.1-9.27 12.55-91.41 94.85-53.76 53.87-91.48 90.92-93.42 91.75-1.79 0.77-4.94 1.4-7 1.4-2.06-0.01-5.21-0.91-7-2-1.79-1.1-19-19.32-73.25-79l-4.82 4.25c-2.65 2.34-22 20-43.01 39.25-21 19.25-39.42 35.54-40.93 36.2-1.51 0.67-4.54 1.24-6.74 1.28-2.58 0.05-5.22-0.73-7.45-2.2-1.9-1.25-4.5-3.85-5.78-5.78-1.34-2.01-2.32-4.99-2.31-7 0-1.93 0.58-5.06 1.27-6.97 0.96-2.62 12.87-14.08 48.27-46.43 25.85-23.62 48.91-44.67 51.25-46.78 3.01-2.71 5.49-3.99 8.5-4.4 2.78-0.39 5.63-0.04 8.25 1 3.19 1.27 11.19 9.5 75 79.67l83.5-83.51c45.92-45.92 84.62-83.94 86-84.48 1.37-0.53 3.96-1 5.75-1.04z"/>
</svg>