<?xml version="1.0" standalone="no"?>
<!DOCTYPE svg PUBLIC "-//W3C//DTD SVG 20010904//EN"
 "http://www.w3.org/TR/2001/REC-SVG-20010904/DTD/svg10.dtd">
<svg version="1.0" xmlns="http://www.w3.org/2000/svg"
 width="1024.000000pt" height="1024.000000pt" viewBox="0 0 1024.000000 1024.000000"
 preserveAspectRatio="xMidYMid meet">

<g transform="translate(0.000000,1024.000000) scale(0.100000,-0.100000)"
fill="#000000" stroke="none">
<path d="M4575 10193 c-210 -10 -598 -82 -790 -148 -22 -7 -94 -30 -160 -50
-99 -31 -305 -107 -390 -145 -11 -5 -87 -37 -170 -71 -306 -128 -747 -363
-1002 -532 -271 -180 -514 -400 -667 -603 -166 -222 -260 -491 -243 -693 7
-88 42 -209 82 -290 18 -36 43 -88 55 -116 148 -328 350 -777 379 -844 39 -90
62 -110 110 -93 14 6 508 224 1096 487 589 262 1077 479 1085 482 11 3 28 -26
64 -107 27 -61 46 -113 43 -116 -4 -4 -1959 -878 -2142 -957 -47 -21 -69 -22
-412 -27 -345 -5 -363 -6 -389 -26 -62 -46 -69 -65 -74 -206 l-5 -132 -96 -41
c-196 -85 -331 -178 -476 -329 -111 -114 -172 -201 -244 -342 -55 -108 -125
-304 -133 -374 -3 -19 -9 -57 -15 -85 -5 -27 -10 -57 -10 -65 -1 -8 -4 -42 -9
-75 -12 -101 -5 -402 12 -510 9 -55 18 -118 21 -140 3 -21 14 -77 26 -123 11
-46 22 -96 24 -111 6 -43 80 -282 134 -431 103 -285 352 -804 472 -984 21 -32
39 -60 39 -63 0 -2 11 -19 25 -37 14 -18 25 -37 25 -42 0 -5 20 -36 44 -69 25
-33 55 -75 68 -93 118 -169 331 -400 478 -519 218 -175 454 -293 688 -343 106
-23 311 -32 402 -18 25 4 63 9 86 12 71 9 178 51 599 239 463 207 454 200 417
280 -12 26 -31 67 -42 92 -11 25 -29 65 -40 90 -11 25 -29 65 -40 90 -11 25
-29 64 -39 87 -10 24 -81 183 -156 353 -75 171 -150 337 -166 370 -99 207
-155 548 -129 785 10 99 42 244 61 282 7 14 15 15 41 7 18 -5 95 -9 172 -9
107 0 137 -3 133 -12 -42 -94 -90 -233 -104 -300 -22 -102 -25 -363 -4 -448 7
-30 15 -68 18 -85 14 -85 122 -343 558 -1320 438 -984 514 -1152 548 -1211 35
-59 158 -191 229 -244 261 -197 671 -293 1058 -249 47 5 97 9 111 9 15 0 62 7
105 16 44 8 97 17 119 20 22 3 76 14 120 25 44 11 87 22 95 24 107 26 187 48
201 55 9 5 27 11 40 14 145 29 648 231 974 391 163 80 228 114 350 182 21 12
225 134 260 156 291 180 572 425 735 640 98 130 147 221 200 372 43 126 53
191 47 322 -5 134 -19 183 -97 347 -28 58 -50 108 -50 110 0 3 -20 48 -45 100
-25 53 -45 98 -45 101 0 2 -18 42 -39 87 -21 46 -53 117 -71 158 -18 41 -50
113 -72 160 -22 47 -46 99 -53 115 -56 130 -76 166 -99 176 -22 10 -141 -41
-1132 -482 -609 -271 -1109 -489 -1111 -483 -2 5 -25 56 -51 114 l-48 105 276
123 c151 67 671 299 1155 515 l880 392 250 5 c235 5 252 6 285 27 52 32 71 72
77 163 l6 79 163 72 c144 64 201 95 353 198 20 13 81 70 136 125 222 225 354
493 417 846 17 100 18 515 0 630 -75 491 -216 901 -509 1476 -301 591 -634
999 -1028 1257 -51 34 -73 46 -185 101 -99 49 -250 102 -318 111 -17 3 -47 7
-65 10 -163 29 -358 21 -502 -21 -96 -28 -907 -384 -937 -411 -10 -9 -18 -24
-18 -33 0 -10 113 -271 251 -581 139 -310 267 -609 286 -664 111 -319 123
-666 33 -937 -16 -48 -44 -116 -61 -150 -34 -67 -106 -178 -116 -178 -3 0 -46
39 -96 86 -49 47 -100 91 -113 96 -13 6 -24 16 -24 21 0 6 22 54 49 108 58
113 106 251 122 346 19 116 14 314 -10 433 -25 121 -71 266 -113 360 -17 36
-39 84 -49 108 -11 23 -28 62 -39 87 -11 25 -29 65 -40 90 -11 25 -28 64 -39
88 -10 23 -30 67 -44 97 -13 30 -34 75 -45 100 -11 25 -29 65 -40 90 -11 25
-30 68 -42 95 -43 96 -62 140 -82 185 -11 25 -28 64 -39 88 -10 23 -28 62 -39
87 -11 25 -29 65 -40 90 -11 25 -29 65 -40 90 -11 25 -29 65 -40 90 -11 25
-29 65 -40 90 -11 25 -29 65 -40 90 -11 25 -29 65 -40 90 -11 25 -29 65 -40
90 -11 25 -29 65 -40 90 -11 25 -29 64 -39 88 -11 23 -42 92 -69 154 -83 187
-186 314 -343 426 -115 81 -310 166 -418 182 -23 3 -55 11 -69 16 -14 5 -46
12 -71 15 -25 2 -89 9 -141 14 -52 6 -122 9 -155 8 -33 -2 -82 -4 -110 -5z
m-2154 -1784 c120 -43 210 -145 248 -282 15 -55 16 -72 5 -136 -33 -195 -168
-323 -358 -340 -67 -5 -92 -3 -141 13 -188 61 -297 222 -281 415 8 93 42 167
111 235 116 116 263 149 416 95z m3919 -2183 c295 -68 508 -232 642 -492 95
-185 131 -352 132 -609 1 -257 -33 -407 -135 -605 -86 -165 -240 -320 -401
-401 -276 -139 -651 -145 -933 -15 -244 113 -433 337 -514 611 -56 193 -73
496 -37 679 79 405 304 686 641 801 177 61 421 73 605 31z m-4062 -26 c279
-57 475 -243 542 -514 30 -119 30 -297 1 -407 -66 -253 -234 -421 -501 -500
-67 -20 -105 -23 -365 -28 l-290 -6 -3 -352 -2 -353 -230 0 -230 0 0 1090 0
1090 493 0 c446 0 501 -2 585 -20z m1932 6 c215 -39 387 -152 483 -316 75
-129 109 -308 90 -473 -27 -227 -131 -390 -319 -497 -40 -23 -54 -37 -49 -48
3 -8 105 -196 225 -417 121 -221 220 -405 220 -409 0 -3 -114 -6 -253 -6
l-253 0 -204 385 -205 384 -167 1 -168 0 0 -385 0 -385 -235 0 -235 0 0 1090
0 1090 498 0 c375 -1 515 -4 572 -14z m4720 -176 l0 -190 -505 0 -505 0 0
-260 0 -260 470 0 470 0 -2 -187 -3 -188 -467 -3 -468 -2 0 -260 0 -260 510 0
510 0 0 -190 0 -190 -740 0 -740 0 0 1090 0 1090 735 0 735 0 0 -190z m-4007
-942 c9 -48 11 -163 4 -175 -3 -5 -70 -38 -148 -73 -113 -50 -143 -60 -150
-49 -18 28 -7 48 52 100 34 29 85 87 115 129 71 102 117 126 127 68z m-1013
-534 c28 -53 48 -100 43 -104 -4 -4 -37 -28 -73 -53 -36 -26 -77 -56 -92 -68
l-28 -21 0 150 0 150 43 21 c23 12 45 21 49 21 3 0 29 -43 58 -96z m4208
-2029 c68 -32 153 -113 186 -175 62 -119 53 -284 -24 -397 -51 -77 -148 -149
-219 -164 -212 -44 -376 34 -465 221 -28 59 -31 74 -31 160 0 87 3 101 32 160
43 88 83 133 149 171 124 71 255 79 372 24z"/>
<path d="M5975 5828 c-238 -45 -402 -274 -424 -592 -35 -504 173 -815 545
-816 200 0 369 100 460 272 123 235 122 643 -3 881 -107 203 -331 302 -578
255z m290 -177 c55 -26 125 -85 114 -95 -8 -9 -633 -287 -657 -293 -22 -5 -23
-4 -16 33 13 73 54 191 72 207 26 24 373 176 402 177 14 0 52 -13 85 -29z"/>
<path d="M1660 5480 l0 -360 184 0 c101 0 208 5 237 10 185 35 285 160 283
355 -2 145 -51 243 -151 302 -74 43 -139 53 -355 53 l-198 0 0 -360z"/>
<path d="M3610 5515 l0 -327 228 4 c209 4 232 6 286 27 72 29 128 78 156 137
31 63 38 182 16 259 -30 100 -69 144 -173 193 -57 27 -62 27 -285 30 l-228 4
0 -327z"/>
</g>
</svg>
