<svg version="1.2" xmlns="http://www.w3.org/2000/svg" viewBox="0 0 512 512" width="512" height="512">
	<style>
		.s0 { fill: #000000 } 
	</style>
	<path id="Color Fill 1" class="s0" d="m216.37 6.77c6.47-1.05 17.49-2.35 24.5-2.88 7.01-0.54 18.98-0.8 26.6-0.59 7.62 0.21 21.01 1.52 29.76 2.89 8.74 1.38 22.7 4.48 31.01 6.89 8.32 2.41 21.16 6.88 28.55 9.93 7.38 3.05 18.23 8.3 24.1 11.66 5.87 3.36 15.62 9.5 21.66 13.64 6.04 4.13 15.46 11.36 20.94 16.06 5.47 4.7 14.4 13.31 19.86 19.15 5.45 5.83 14.28 16.65 19.62 24.03 5.34 7.38 12.63 18.68 16.19 25.11 3.56 6.44 9.73 19.63 13.71 29.33 5.56 13.56 8.13 21.64 11.12 34.96 2.13 9.52 4.63 23.88 5.55 31.9 0.91 8.02 1.57 22.03 1.45 31.13-0.12 9.11-1.26 23.68-2.54 32.4-1.28 8.71-4.72 24.01-7.64 34-2.92 9.98-8.56 25.36-12.54 34.17-3.97 8.81-10.28 20.85-14.01 26.76-3.72 5.91-10.68 16-15.46 22.41-4.78 6.41-15.79 18.55-24.46 26.97-8.68 8.43-21.83 19.63-29.24 24.9-7.4 5.27-19.27 12.71-26.37 16.55-7.1 3.83-19.79 9.66-28.2 12.94-8.41 3.27-22.75 7.79-31.86 10.04-9.12 2.25-22.83 4.81-30.49 5.69-7.65 0.88-19.13 1.73-25.5 1.88-6.37 0.16-18.59-0.35-27.14-1.12-8.56-0.78-22.18-2.83-30.29-4.57-8.1-1.73-21.33-5.46-29.39-8.28-8.07-2.82-21.15-8.3-29.08-12.17-7.92-3.87-20.09-10.81-27.03-15.42-6.94-4.61-17.48-12.41-23.43-17.34-5.95-4.92-16.17-14.68-22.71-21.68-6.54-7-13.53-15.62-15.53-19.14-2-3.53-4.08-9.05-4.62-12.28-0.54-3.23-0.52-9.11 0.04-13.06 0.57-3.96 2.67-9.54 4.66-12.41 2-2.87 5.98-7.06 8.86-9.32 2.88-2.25 7.34-4.77 9.91-5.59 2.58-0.82 8.07-1.54 12.2-1.6 5.68-0.08 9.55 0.98 15.78 4.31 6.04 3.23 10.19 6.77 15.43 13.15 3.94 4.8 11.53 12.61 16.87 17.34 5.34 4.74 14.23 11.77 19.75 15.62 5.51 3.85 15.91 9.85 23.09 13.32 7.18 3.48 18.16 7.89 24.38 9.81 6.23 1.92 17.19 4.45 24.36 5.62 7.16 1.16 19.55 2.22 27.52 2.35 7.98 0.13 20.71-0.66 28.29-1.76 10.8-1.57 18.22-3.56 34.19-9.2 11.77-4.15 24.08-9.32 29.11-12.22 4.8-2.76 12.49-7.76 17.11-11.1 4.61-3.35 11.98-9.37 16.38-13.38 4.4-4.02 12.45-12.79 17.89-19.51 6.45-7.97 13.14-18.51 19.27-30.38 5.28-10.24 10.98-23.77 13.04-31 2.02-7.05 4.45-17.71 5.41-23.68 0.96-5.97 1.84-17.06 1.97-24.66 0.12-7.59-0.49-19.45-1.37-26.35-1.03-8.11-3.61-18.96-7.3-30.66-3.64-11.54-7.8-22.08-11.46-29.02-3.15-5.99-9.22-15.82-13.48-21.84-4.25-6.03-11.87-15.21-16.92-20.42-5.05-5.21-12.52-12.13-16.59-15.37-4.07-3.25-12.12-8.97-17.89-12.7-5.77-3.73-17.25-9.59-25.51-13.02-8.26-3.44-21.04-7.68-28.39-9.43-7.35-1.76-18.76-3.64-25.35-4.18-6.6-0.55-17.48-0.76-24.19-0.48-6.71 0.28-18.05 1.57-25.19 2.87-8.34 1.51-18.96 4.54-29.62 8.44-9.15 3.35-21.06 8.68-26.48 11.85-5.43 3.17-13.13 8.15-17.12 11.06-3.99 2.91-10.86 8.57-15.27 12.57-4.4 4.01-11.29 11.07-15.31 15.7l-7.3 8.41c20.95 13.82 22.76 15.57 24.12 19.87 0.86 2.74 1.33 6.66 1.02 8.71-0.3 2.04-1.66 5.05-3.03 6.7-1.87 2.23-14.67 8.12-50.98 23.46-26.67 11.27-51.85 21.58-55.96 22.93-5.79 1.9-8.65 2.11-12.74 0.96-2.91-0.82-6.88-3.14-8.84-5.15-1.95-2.02-4.13-5.49-4.84-7.72-0.7-2.24-1.35-29.85-1.43-61.36-0.14-50.05 0.18-57.88 2.46-61.9 1.98-3.49 3.89-5.02 7.91-6.32 3.67-1.19 6.69-1.2 9.85-0.02 2.5 0.94 10.68 5.8 18.17 10.81 7.49 5 13.76 9.06 13.94 9.03 0.18-0.04 4.1-4.75 8.72-10.47 4.62-5.72 13.37-15.22 19.44-21.1 6.08-5.89 15.89-14.47 21.81-19.07 5.91-4.61 16.07-11.6 22.57-15.55 6.5-3.94 17.87-10 25.28-13.46 7.64-3.58 22-8.93 33.19-12.37 10.85-3.34 25.01-6.93 31.48-7.98z"/>
</svg>